Coordinates
version=1
nRows=5
nColumns=63
inDegrees=yes

Units are S.I. units (second, meters, Newtons, ...)
If the header above contains a line with 'inDegrees', this indicates whether rotational values are in degrees (yes) or radians (no).

endheader
time	pelvis_tilt	pelvis_list	pelvis_rotation	pelvis_tx	pelvis_ty	pelvis_tz	hip_flexion_r	hip_adduction_r	hip_rotation_r	knee_angle_r	knee_angle_r_beta	ankle_angle_r	subtalar_angle_r	mtp_angle_r	hip_flexion_l	hip_adduction_l	hip_rotation_l	knee_angle_l	knee_angle_l_beta	ankle_angle_l	subtalar_angle_l	mtp_angle_l	L5_S1_Flex_Ext	L5_S1_Lat_Bending	L5_S1_axial_rotation	L4_L5_Flex_Ext	L4_L5_Lat_Bending	L4_L5_axial_rotation	L3_L4_Flex_Ext	L3_L4_Lat_Bending	L3_L4_axial_rotation	L2_L3_Flex_Ext	L2_L3_Lat_Bending	L2_L3_axial_rotation	L1_L2_Flex_Ext	L1_L2_Lat_Bending	L1_L2_axial_rotation	L1_T12_Flex_Ext	L1_T12_Lat_Bending	L1_T12_axial_rotation	Abs_r3	Abs_r2	Abs_r1	Abs_t1	Abs_t2	neck_flexion	neck_bending	neck_rotation	arm_flex_r	arm_add_r	arm_rot_r	elbow_flex_r	pro_sup_r	wrist_flex_r	wrist_dev_r	arm_flex_l	arm_add_l	arm_rot_l	elbow_flex_l	pro_sup_l	wrist_flex_l	wrist_dev_l
      0.00000000	     -3.94802124	     -4.00670194	     96.65160933	      0.15739662	      1.00577298	      0.19679629	    -14.54051185	     -4.08028471	     -3.09292442	      3.28402091	      0.05731698	     25.36942433	     -8.47672891	      0.00000000	    -13.70115871	      2.48574324	      3.99231457	      0.35375285	      0.00617415	     25.72602503	      5.20686912	      0.00000000	      0.30774756	     -0.75878623	     -0.25103822	      0.57151799	     -1.00918568	     -0.26672811	      0.50559846	     -1.84491283	     -0.26672811	      0.35172468	     -1.84491283	     -0.21965844	      0.28577438	     -1.54731687	     -0.20396855	      0.17584695	     -1.17535987	     -0.18827866	      2.19821001	     -8.58354155	     -1.39619926	      0.00000000	      0.00000000	     11.82289608	      1.29586582	    -25.01386068	     50.25797132	     10.48345143	    185.73165145	      0.64050504	     54.19366863	     -9.66834967	    -21.34061316	     44.54515555	     -0.29304741	     58.78932765	     24.48686508	     57.30436378	     -2.07822141	     11.64611267
      0.01666667	     -3.77652276	     -3.71093872	     98.60829514	      0.15635511	      1.00657377	      0.19449152	    -15.57929262	     -3.13784575	     -0.46317477	      2.03191089	      0.03546354	     23.77850279	    -13.40025162	      0.00000000	    -14.03874315	      1.77495435	      4.69678222	      0.36154906	      0.00631022	     25.72974077	      6.35250558	      0.00000000	      0.29521263	     -0.77867743	     -0.54109983	      0.54823937	     -1.03564098	     -0.57491857	      0.48500483	     -1.89327630	     -0.57491857	      0.33739851	     -1.89327630	     -0.47346235	      0.27413445	     -1.58787901	     -0.43964361	      0.16868450	     -1.20617134	     -0.40582487	      2.10867428	     -8.80855481	     -3.00943491	      0.00000000	      0.00000000	     11.25470811	      1.62973346	    -25.87009089	     49.84170389	     10.36044691	    183.20056899	      0.66034429	     52.40509437	     -8.18014209	    -21.96881492	     43.93810799	     -0.40980080	     58.01302423	     24.80272847	     56.92286529	     -2.03070202	     11.65883612
      0.03333333	     -3.64922278	     -3.51376260	     99.10139807	      0.15638242	      1.00709730	      0.19289041	    -15.87257086	     -2.79478162	     -0.33343510	      1.94131876	      0.03388240	     23.82173724	    -13.42582775	      0.00000000	    -14.31631505	      1.50516446	      4.63998215	      0.35061076	      0.00611931	     25.57663860	      6.38529286	      0.00000000	      0.29839961	     -0.77784859	     -0.59320743	      0.55415792	     -1.03453863	     -0.63028289	      0.49024072	     -1.89126107	     -0.63028289	      0.34104092	     -1.89126107	     -0.51905650	      0.27709388	     -1.58618885	     -0.48198103	      0.17050554	     -1.20488747	     -0.44490557	      2.13143859	     -8.79917886	     -3.29924175	      0.00000000	      0.00000000	     11.01952060	      1.84599222	    -25.99712063	     49.51973737	     10.33926419	    183.18213107	      0.64887948	     52.37900839	     -8.16376041	    -22.12003515	     43.61458514	     -0.45419499	     58.03398030	     24.89723758	     56.90114545	     -1.97863158	     11.62306523
      0.05000000	     -3.47607173	     -3.32000582	    100.82847419	      0.15503332	      1.00758362	      0.19212705	    -16.46949115	     -2.01396229	     -1.33130371	      1.57430030	      0.02747672	     22.99410578	    -14.33464612	      0.00000000	    -14.43644884	      0.84628216	      5.17661339	      0.38505137	      0.00672041	     25.84467900	      7.50952938	      0.00000000	      0.28099741	     -0.77430793	     -0.89625191	      0.52184030	     -1.02982954	     -0.95226765	      0.46165065	     -1.88265229	     -0.95226765	      0.32115195	     -1.88265229	     -0.78422042	      0.26093420	     -1.57896872	     -0.72820468	      0.16056192	     -1.19940298	     -0.67218893	      2.00713643	     -8.75912613	     -4.98468424	      0.00000000	      0.00000000	     10.60020844	      1.94977019	    -26.05089494	     49.27277841	     10.41986317	    183.26227948	      0.64750030	     52.47765875	     -8.37139965	    -22.49410612	     43.30295202	     -0.72544991	     57.78915087	     25.20054936	     56.92709634	     -1.62239594	     11.69689545
      0.06666667	     -3.32459272	     -3.19788643	    101.49307221	      0.15445941	      1.00782860	      0.19165907	    -16.66100301	     -1.62144084	     -2.89794576	      1.74832582	      0.03051404	     22.95714754	    -13.27344405	      0.00000000	    -14.54619516	      0.51603884	      5.36330829	      0.39487265	      0.00689183	     25.93592642	      7.59917229	      0.00000000	      0.27949940	     -0.75593462	     -1.02615302	      0.51905833	     -1.00539305	     -1.09028759	      0.45918956	     -1.83797944	     -1.09028759	      0.31943986	     -1.83797944	     -0.89788389	      0.25954314	     -1.54150188	     -0.83374933	      0.15970596	     -1.17094273	     -0.76961477	      1.99643625	     -8.55128364	     -5.70715526	      0.00000000	      0.00000000	     10.35577098	      1.94256502	    -25.69854212	     49.06273881	     10.54498151	    184.08995319	      0.63166304	     53.21913374	     -8.74338972	    -22.63645001	     43.16093471	     -0.95025615	     58.01924509	     25.37645419	     57.09841547	     -1.23837751	     11.83978826
